<?xml version="1.0" standalone="no"?>
<!DOCTYPE svg PUBLIC "-//W3C//DTD SVG 20010904//EN"
 "http://www.w3.org/TR/2001/REC-SVG-20010904/DTD/svg10.dtd">
<svg version="1.0" xmlns="http://www.w3.org/2000/svg"
 width="173.000000pt" height="139.000000pt" viewBox="0 0 173.000000 139.000000"
 preserveAspectRatio="xMidYMid meet">

<g transform="translate(0.000000,139.000000) scale(0.100000,-0.100000)"
fill="#000000" stroke="none">
<path d="M497 803 c-76 -54 -194 -138 -262 -186 l-125 -88 0 -145 c0 -113 3
-144 13 -138 6 4 61 41 121 83 60 42 217 150 350 241 132 91 242 173 244 182
2 11 -27 37 -91 82 -52 36 -99 66 -104 66 -4 0 -70 -44 -146 -97z"/>
</g>
</svg>
