<?xml version="1.0" standalone="no"?>
<!DOCTYPE svg PUBLIC "-//W3C//DTD SVG 20010904//EN"
 "http://www.w3.org/TR/2001/REC-SVG-20010904/DTD/svg10.dtd">
<svg version="1.0" xmlns="http://www.w3.org/2000/svg"
 width="5000.000000pt" height="4000.000000pt" viewBox="0 0 5000.000000 4000.000000"
 preserveAspectRatio="xMidYMid meet">

<g transform="translate(0.000000,4000.000000) scale(0.100000,-0.100000)"
fill="#000000" stroke="none">
<path d="M27275 21799 c-5 -8 -4 -10 4 -5 7 5 45 4 84 0 69 -8 70 -8 32 -15
-23 -5 -7 -5 39 -2 55 3 76 2 72 -6 -4 -6 -20 -11 -37 -11 -27 0 -29 -2 -29
-40 l0 -40 -40 0 -40 0 0 -40 0 -40 -40 0 -40 0 0 -40 0 -40 -40 0 -40 0 0
-40 0 -40 -40 0 -40 0 0 -40 0 -40 -40 0 -40 0 0 -40 0 -40 -40 0 -40 0 0 -40
0 -40 -40 0 -40 0 0 -80 0 -80 -40 0 -40 0 0 -40 0 -40 -40 0 -40 0 0 -40 0
-40 -40 0 -40 0 0 -40 0 -40 -40 0 -40 0 0 -40 0 -40 -40 0 -40 0 0 -40 0 -40
-40 0 -40 0 0 -40 c0 -39 -1 -40 -35 -40 -23 0 -42 -8 -60 -26 -21 -21 -22
-25 -6 -19 15 4 20 1 23 -17 3 -20 8 -23 41 -21 21 1 36 -1 33 -6 -3 -4 0 -8
7 -8 7 -1 27 -4 45 -8 21 -5 32 -4 32 3 0 6 -6 9 -13 6 -7 -2 -24 -1 -37 4
-17 6 -4 8 46 8 56 -1 68 -4 58 -13 -7 -7 -21 -10 -31 -6 -13 4 -15 3 -7 -6
13 -14 89 -19 124 -8 l25 8 -25 -16 c-21 -13 -22 -15 -5 -13 11 1 26 -2 34 -7
10 -5 16 -4 19 3 5 17 22 15 22 -2 0 -9 17 -16 46 -21 56 -8 49 -6 217 -49 76
-20 148 -38 160 -40 12 -3 37 -9 55 -15 17 -5 32 -7 32 -4 0 3 6 0 14 -6 8 -6
18 -11 22 -10 5 1 16 0 24 -3 8 -4 109 -36 223 -73 181 -59 383 -134 577 -216
178 -75 477 -237 650 -352 615 -410 981 -870 1087 -1367 32 -151 36 -393 9
-545 -69 -381 -266 -778 -590 -1190 -255 -324 -664 -733 -1096 -1096 -571
-481 -1316 -1012 -2212 -1577 -478 -301 -1399 -848 -1833 -1087 -27 -15 -169
-94 -315 -175 -430 -239 -719 -396 -1305 -707 -780 -415 -1987 -1027 -3147
-1596 -173 -84 -305 -154 -301 -160 3 -6 1 -7 -5 -3 -7 4 -92 -32 -189 -79
-98 -48 -222 -107 -275 -132 -53 -26 -94 -51 -91 -56 3 -6 1 -7 -5 -3 -6 3
-77 -26 -159 -65 -81 -39 -197 -95 -258 -124 -100 -48 -211 -101 -502 -240
-56 -27 -99 -53 -96 -58 3 -6 1 -7 -5 -3 -6 4 -22 1 -34 -6 -13 -7 -25 -13
-28 -13 -24 -4 -89 -43 -83 -50 5 -4 3 -5 -4 -1 -14 8 -103 -32 -103 -46 0 -5
-4 -7 -9 -3 -14 8 -81 -27 -74 -38 3 -6 1 -7 -4 -4 -13 8 -234 -94 -227 -104
2 -4 -4 -7 -13 -7 -23 2 -103 -33 -103 -45 0 -4 -4 -5 -10 -2 -10 6 -14 -7
-11 -32 1 -6 -2 -14 -7 -17 -5 -3 -8 6 -6 19 2 22 0 24 -19 14 -12 -7 -30 -18
-39 -27 -10 -8 -18 -12 -18 -8 0 3 -15 -1 -32 -11 -18 -9 -37 -18 -43 -19 -5
-1 -45 -18 -87 -39 -72 -34 -97 -55 -65 -55 8 0 7 -4 -3 -10 -8 -5 -22 -9 -30
-9 -10 0 -9 3 4 8 13 5 16 10 9 14 -19 12 -62 -13 -55 -32 5 -14 4 -14 -13 -1
-10 8 -16 10 -12 4 4 -7 0 -15 -9 -18 -10 -4 -13 -2 -7 7 4 6 -5 4 -20 -6 -15
-9 -27 -15 -27 -12 0 3 -13 -1 -30 -10 -16 -9 -30 -17 -30 -19 0 -8 45 8 52
18 5 7 8 7 8 -2 0 -7 5 -10 12 -6 6 4 21 8 32 10 57 9 94 16 251 49 94 20 181
38 195 41 14 2 32 7 40 10 8 3 27 7 41 9 38 5 351 75 369 82 8 3 18 5 22 5 7
-2 248 54 728 168 858 204 2041 523 2955 797 2343 700 4462 1496 6250 2346
354 168 1035 513 1355 687 1291 698 2047 1227 2725 1905 581 579 1006 1177
1291 1811 264 589 388 1141 383 1709 -4 518 -110 952 -339 1392 -283 545 -725
969 -1331 1276 -124 63 -165 82 -354 162 -380 163 -921 314 -1445 404 -299 52
-753 110 -855 109 -22 0 -47 2 -55 5 -8 3 -58 8 -110 11 -52 3 -146 8 -209 12
-91 6 -113 5 -106 -5 6 -10 3 -11 -13 -2 -11 6 -34 9 -51 7 -17 -2 -33 0 -36
3 -2 4 -113 7 -247 7 -168 0 -214 -2 -148 -7 83 -5 78 -6 -40 -4 -74 2 -165 6
-201 10 -49 5 -69 3 -74 -6z m605 -9 c-19 -6 -21 -8 -6 -9 11 -1 17 -4 13 -7
-3 -3 -15 -3 -28 1 -17 6 -19 9 -8 16 8 5 23 8 34 8 16 -1 16 -2 -5 -9z m-120
-20 c0 -5 -5 -10 -11 -10 -5 0 -7 5 -4 10 3 6 8 10 11 10 2 0 4 -4 4 -10z
m237 -6 c-3 -3 -12 -4 -19 -1 -8 3 -5 6 6 6 11 1 17 -2 13 -5z m-1411 -1316
c-10 -5 -20 -7 -23 -4 -4 3 -1 6 7 6 10 0 10 3 -1 17 -13 15 -12 15 10 3 22
-11 23 -13 7 -22z m82 5 c2 -7 -1 -13 -8 -13 -6 0 -9 4 -5 9 3 5 -3 12 -12 15
-15 4 -15 5 1 3 11 -1 21 -8 24 -14z m42 2 c-7 -9 -15 -13 -17 -11 -7 7 7 26
19 26 6 0 6 -6 -2 -15z m247 -91 c-3 -3 -12 -4 -19 -1 -8 3 -5 6 6 6 11 1 17
-2 13 -5z m-9920 -11217 c0 -7 -9 -13 -19 -13 -18 0 -18 1 -2 13 10 7 18 13
19 13 1 0 2 -6 2 -13z m-172 -75 c-8 -8 -65 -10 -60 -2 2 4 18 7 35 7 16 0 28
-3 25 -5z m-179 -88 c18 -14 18 -14 -6 -3 -31 14 -36 19 -24 19 6 0 19 -7 30
-16z m94 -38 c0 -2 -7 -7 -16 -10 -8 -3 -12 -2 -9 4 6 10 25 14 25 6z m-55
-26 c-3 -5 -12 -10 -18 -10 -7 0 -6 4 3 10 19 12 23 12 15 0z m-225 -60 c-8
-5 -24 -9 -35 -9 -16 1 -16 2 5 9 35 11 48 11 30 0z m-130 -24 c0 -2 -7 -7
-16 -10 -8 -3 -12 -2 -9 4 6 10 25 14 25 6z"/>
<path d="M27215 21790 c-3 -5 1 -10 9 -10 9 0 16 5 16 10 0 6 -4 10 -9 10 -6
0 -13 -4 -16 -10z"/>
<path d="M27125 21780 c3 -6 20 -10 37 -10 38 0 34 5 -10 13 -21 4 -31 3 -27
-3z"/>
<path d="M25588 20613 c7 -3 16 -2 19 1 4 3 -2 6 -13 5 -11 0 -14 -3 -6 -6z"/>
<path d="M26220 20548 c0 -10 6 -18 13 -19 6 0 3 -4 -8 -9 l-20 -9 20 -1 20
-1 -20 -10 c-17 -7 -17 -8 -2 -6 10 1 17 6 17 12 -1 5 7 12 17 16 16 7 16 8 1
8 -9 1 -22 9 -27 19 -10 16 -10 16 -11 0z"/>
<path d="M26247 20548 c2 -5 13 -8 23 -8 10 0 21 3 23 8 3 4 -8 7 -23 7 -15 0
-26 -3 -23 -7z"/>
<path d="M26140 20546 c0 -2 7 -7 16 -10 8 -3 12 -2 9 4 -6 10 -25 14 -25 6z"/>
<path d="M26101 20516 c10 -8 89 -13 83 -5 -3 5 -24 9 -46 9 -23 0 -39 -2 -37
-4z"/>
<path d="M26265 20490 c3 -5 11 -10 16 -10 6 0 7 5 4 10 -3 6 -11 10 -16 10
-6 0 -7 -4 -4 -10z"/>
</g>
</svg>
